#!OML:ASF H:\Dans Jumps\Project 1\Capture day 1\Session 1\subject.ASF
:FULLY-SPECIFIED
:DEGREES
509
root 0.211365 17.7657 -6.45374 6.94952 -0.330891 -1.48028
lowerback -0.696364 0.2305 -0.180819
upperback 3.94691 0.259847 1.39133
thorax 4.44967 0.0942652 1.54897
lowerneck -11.2406 0.531161 -1.83249
upperneck 37.5338 1.04971 0.716738
head 14.8841 0.290354 0.791366
rclavicle 2.5345e-015 1.19271e-014
rhumerus -21.1761 -10.4687 -83.6802
rradius 22.9619
rwrist 38.1913
rhand -15.9778 -23.0901
rfingers 7.12502
rthumb 10.2216 -52.8217
lclavicle 2.5345e-015 1.19271e-014
lhumerus -17.9814 -11.4154 91.76
lradius 19.8327
lwrist 2.85276
lhand -21.8996 -4.06624
lfingers 7.12502
lthumb 4.50571 25.8658
rfemur -16.045 -2.55625 20.323
rtibia 21.4206
rfoot -11.7801 -2.36193
rtoes 16.0182
lfemur -14.4231 6.29997 -19.0276
ltibia 18.3683
lfoot -8.89077 7.541
ltoes 8.38322
510
root 0.208145 17.7657 -6.44619 6.96876 -0.352072 -1.48268
lowerback -0.707863 0.229293 -0.163556
upperback 3.9555 0.257929 1.3808
thorax 4.4653 0.0940397 1.52846
lowerneck -11.2066 0.539663 -1.81227
upperneck 37.5489 1.05607 0.71578
head 14.8835 0.295519 0.788189
rclavicle 1.73937e-015 -9.93923e-015
rhumerus -21.7534 -11.5124 -83.0016
rradius 22.6514
rwrist 38.7397
rhand -15.8707 -23.1732
rfingers 7.12502
rthumb 10.3249 -52.8997
lclavicle 1.73937e-015 -9.93923e-015
lhumerus -18.3627 -9.81002 91.0277
lradius 19.1373
lwrist 1.65346
lhand -22.0802 -4.17103
lfingers 7.12502
lthumb 4.33131 25.7647
rfemur -16.0394 -2.53761 20.3369
rtibia 21.4161
rfoot -11.7975 -2.3641
rtoes 16.0002
lfemur -14.4099 6.30455 -19.013
ltibia 18.3635
lfoot -8.90584 7.56604
ltoes 8.3653
511
root 0.205085 17.7658 -6.43848 6.98695 -0.374548 -1.48325
lowerback -0.719728 0.227828 -0.147723
upperback 3.96599 0.255648 1.37121
thorax 4.48314 0.093549 1.50973
lowerneck -11.183 0.549599 -1.79504
upperneck 37.5697 1.06537 0.715728
head 14.888 0.301564 0.786517
rclavicle -1.88845e-015 -3.18055e-015
rhumerus -22.3325 -12.561 -82.29
rradius 22.3618
rwrist 39.2911
rhand -15.7736 -23.2545
rfingers 7.12502
rthumb 10.4186 -52.9763
lclavicle -1.88845e-015 -3.18055e-015
lhumerus -18.7281 -8.14651 90.2364
lradius 18.4568
lwrist 0.502729
lhand -22.3446 -4.40165
lfingers 7.12502
lthumb 4.07602 25.5391
rfemur -16.0337 -2.51973 20.348
rtibia 21.4136
rfoot -11.8157 -2.36465
rtoes 15.9728
lfemur -14.3911 6.31024 -19.0009
ltibia 18.3516
lfoot -8.92205 7.5905
ltoes 8.35667
512
root 0.202126 17.7659 -6.43068 7.00601 -0.398455 -1.47131
lowerback -0.734973 0.225782 -0.145783
upperback 3.97927 0.253023 1.36036
thorax 4.50577 0.0923735 1.49751
lowerneck -11.1765 0.559899 -1.77689
upperneck 37.5945 1.07681 0.711913
head 14.8984 0.308072 0.783612
rclavicle 5.96354e-016 1.19271e-015
rhumerus -22.9145 -13.5989 -81.5495
rradius 22.0994
rwrist 39.8358
rhand -15.6899 -23.3408
rfingers 7.12502
rthumb 10.4993 -53.0586
lclavicle 5.96354e-016 1.19271e-015
lhumerus -19.0784 -6.42274 89.3884
lradius 17.7956
lwrist -0.61108
lhand -22.6312 -4.65205
lfingers 7.12502
lthumb 3.79922 25.2938
rfemur -16.0303 -2.50443 20.3446
rtibia 21.4138
rfoot -11.8356 -2.36181
rtoes 15.9509
lfemur -14.3676 6.3167 -19.0034
ltibia 18.3304
lfoot -8.93717 7.61315
ltoes 8.35327
513
root 0.19921 17.7661 -6.42291 7.0255 -0.421894 -1.45372
lowerback -0.753131 0.224789 -0.149164
upperback 3.99553 0.25197 1.34849
thorax 4.53312 0.0917742 1.48734
lowerneck -11.1776 0.568078 -1.75866
upperneck 37.6145 1.08518 0.708195
head 14.9084 0.313355 0.78027
rclavicle 3.42904e-015 -3.97569e-016
rhumerus -23.5021 -14.6211 -80.7849
rradius 21.8695
rwrist 40.3599
rhand -15.6307 -23.4308
rfingers 7.12502
rthumb 10.5564 -53.1457
lclavicle 3.42904e-015 -3.97569e-016
lhumerus -19.4216 -4.67527 88.4915
lradius 17.1653
lwrist -1.67669
lhand -22.8766 -4.79822
lfingers 7.12502
lthumb 3.56229 25.1518
rfemur -16.0279 -2.49111 20.3346
rtibia 21.4158
rfoot -11.8578 -2.35741
rtoes 15.9391
lfemur -14.3405 6.32172 -19.0124
ltibia 18.3006
lfoot -8.94991 7.63466
ltoes 8.35411
514
root 0.19629 17.7665 -6.41525 7.04655 -0.441848 -1.43372
lowerback -0.773096 0.224854 -0.154513
upperback 4.01227 0.252401 1.33631
thorax 4.56195 0.0918395 1.47803
lowerneck -11.1871 0.57347 -1.73633
upperneck 37.6334 1.08952 0.701743
head 14.9198 0.317165 0.774491
rclavicle 1.49089e-016 5.96354e-016
rhumerus -24.097 -15.6246 -79.9991
rradius 21.6692
rwrist 40.8613
rhand -15.6026 -23.5245
rfingers 7.12502
rthumb 10.5836 -53.238
lclavicle 1.49089e-016 5.96354e-016
lhumerus -19.7719 -2.92454 87.552
lradius 16.579
lwrist -2.70867
lhand -23.0497 -4.77252
lfingers 7.12502
lthumb 3.39507 25.1802
rfemur -16.027 -2.47984 20.3218
rtibia 21.419
rfoot -11.8821 -2.35394
rtoes 15.9338
lfemur -14.3117 6.32642 -19.024
ltibia 18.2628
lfoot -8.95935 7.65037
ltoes 8.36056
515
root 0.193399 17.767 -6.40765 7.06885 -0.459426 -1.41417
lowerback -0.793408 0.226659 -0.157908
upperback 4.02741 0.255151 1.32331
thorax 4.58926 0.0931629 1.46687
lowerneck -11.1962 0.574908 -1.71004
upperneck 37.6481 1.08713 0.694495
head 14.9294 0.318642 0.766595
rclavicle -2.33572e-015 9.93923e-016
rhumerus -24.7028 -16.5912 -79.2005
rradius 21.5081
rwrist 41.2962
rhand -15.5705 -23.626
rfingers 7.12502
rthumb 10.6144 -53.3379
lclavicle -2.33572e-015 9.93923e-016
lhumerus -20.1359 -1.1969 86.5755
lradius 16.0404
lwrist -3.69762
lhand -23.1291 -4.52785
lfingers 7.12502
lthumb 3.31841 25.4261
rfemur -16.0254 -2.47036 20.3093
rtibia 21.4195
rfoot -11.9062 -2.35056
rtoes 15.9362
lfemur -14.2834 6.32958 -19.0351
ltibia 18.2224
lfoot -8.96803 7.66465
ltoes 8.36756
516
root 0.190526 17.7677 -6.40018 7.09208 -0.476757 -1.39635
lowerback -0.814196 0.230114 -0.161023
upperback 4.04256 0.260033 1.31209
thorax 4.61681 0.0955198 1.45752
lowerneck -11.2071 0.57531 -1.68507
upperneck 37.6609 1.08361 0.68733
head 14.9384 0.319513 0.758789
rclavicle -6.16232e-015 1.59028e-015
rhumerus -25.3089 -17.5195 -78.3909
rradius 21.3744
rwrist 41.6695
rhand -15.5481 -23.7344
rfingers 7.12502
rthumb 10.6361 -53.4452
lclavicle -6.16232e-015 1.59028e-015
lhumerus -20.5089 0.489941 85.5712
lradius 15.5581
lwrist -4.61151
lhand -23.11 -4.05511
lfingers 7.12502
lthumb 3.33688 25.8985
rfemur -16.0226 -2.46172 20.299
rtibia 21.4154
rfoot -11.9287 -2.34633
rtoes 15.9388
lfemur -14.2573 6.33295 -19.0444
ltibia 18.1827
lfoot -8.97484 7.67858
ltoes 8.37491
517
root 0.187785 17.7684 -6.39278 7.11753 -0.494611 -1.38628
lowerback -0.837117 0.235704 -0.157084
upperback 4.05694 0.267398 1.30437
thorax 4.64471 0.0993058 1.44794
lowerneck -11.2219 0.576327 -1.66267
upperneck 37.676 1.08122 0.682038
head 14.9495 0.320762 0.752463
rclavicle -3.03147e-015 -1.45113e-014
rhumerus -25.9169 -18.4001 -77.5751
rradius 21.2704
rwrist 41.9746
rhand -15.5313 -23.8517
rfingers 7.12502
rthumb 10.6523 -53.5617
lclavicle -3.03147e-015 -1.45113e-014
lhumerus -20.8877 2.11998 84.5487
lradius 15.1205
lwrist -5.46434
lhand -23.0567 -3.49958
lfingers 7.12502
lthumb 3.38831 26.4532
rfemur -16.0196 -2.4553 20.2971
rtibia 21.4061
rfoot -11.9488 -2.33945
rtoes 15.9388
lfemur -14.2352 6.33691 -19.0458
ltibia 18.1464
lfoot -8.98334 7.69383
ltoes 8.38228
